<?xml version="1.0" encoding="UTF-8" standalone="no"?>
<!DOCTYPE svg PUBLIC "-//W3C//DTD SVG 1.1//EN"
 "http://www.w3.org/Graphics/SVG/1.1/DTD/svg11.dtd">
<!-- Generated by graphviz version 2.40.1 (20161225.0304)
 -->
<!-- Title: snakemake_dag Pages: 1 -->
<svg width="276pt" height="620pt"
 viewBox="0.00 0.00 275.50 620.00" xmlns="http://www.w3.org/2000/svg" xmlns:xlink="http://www.w3.org/1999/xlink">
<g id="graph0" class="graph" transform="scale(1 1) rotate(0) translate(4 616)">
<title>snakemake_dag</title>
<polygon fill="#ffffff" stroke="transparent" points="-4,4 -4,-616 271.5,-616 271.5,4 -4,4"/>
<!-- 0 -->
<g id="node1" class="node">
<title>0</title>
<path fill="none" stroke="#9fd856" stroke-width="2" d="M216.5,-36C216.5,-36 166.5,-36 166.5,-36 160.5,-36 154.5,-30 154.5,-24 154.5,-24 154.5,-12 154.5,-12 154.5,-6 160.5,0 166.5,0 166.5,0 216.5,0 216.5,0 222.5,0 228.5,-6 228.5,-12 228.5,-12 228.5,-24 228.5,-24 228.5,-30 222.5,-36 216.5,-36"/>
<text text-anchor="middle" x="191.5" y="-15.5" font-family="sans" font-size="10.00" fill="#000000">final_output</text>
</g>
<!-- 1 -->
<g id="node2" class="node">
<title>1</title>
<path fill="none" stroke="#70d856" stroke-width="2" d="M225.5,-108C225.5,-108 157.5,-108 157.5,-108 151.5,-108 145.5,-102 145.5,-96 145.5,-96 145.5,-84 145.5,-84 145.5,-78 151.5,-72 157.5,-72 157.5,-72 225.5,-72 225.5,-72 231.5,-72 237.5,-78 237.5,-84 237.5,-84 237.5,-96 237.5,-96 237.5,-102 231.5,-108 225.5,-108"/>
<text text-anchor="middle" x="191.5" y="-87.5" font-family="sans" font-size="10.00" fill="#000000">tepid_genotype</text>
</g>
<!-- 1&#45;&gt;0 -->
<g id="edge1" class="edge">
<title>1&#45;&gt;0</title>
<path fill="none" stroke="#c0c0c0" stroke-width="2" d="M191.5,-71.8314C191.5,-64.131 191.5,-54.9743 191.5,-46.4166"/>
<polygon fill="#c0c0c0" stroke="#c0c0c0" stroke-width="2" points="195.0001,-46.4132 191.5,-36.4133 188.0001,-46.4133 195.0001,-46.4132"/>
</g>
<!-- 2 -->
<g id="node3" class="node">
<title>2</title>
<path fill="none" stroke="#5682d8" stroke-width="2" d="M245,-180C245,-180 138,-180 138,-180 132,-180 126,-174 126,-168 126,-168 126,-156 126,-156 126,-150 132,-144 138,-144 138,-144 245,-144 245,-144 251,-144 257,-150 257,-156 257,-156 257,-168 257,-168 257,-174 251,-180 245,-180"/>
<text text-anchor="middle" x="191.5" y="-159.5" font-family="sans" font-size="10.00" fill="#000000">individual_bed_merge2</text>
</g>
<!-- 2&#45;&gt;1 -->
<g id="edge2" class="edge">
<title>2&#45;&gt;1</title>
<path fill="none" stroke="#c0c0c0" stroke-width="2" d="M191.5,-143.8314C191.5,-136.131 191.5,-126.9743 191.5,-118.4166"/>
<polygon fill="#c0c0c0" stroke="#c0c0c0" stroke-width="2" points="195.0001,-118.4132 191.5,-108.4133 188.0001,-118.4133 195.0001,-118.4132"/>
</g>
<!-- 3 -->
<g id="node4" class="node">
<title>3</title>
<path fill="none" stroke="#56d89a" stroke-width="2" d="M255.5,-252C255.5,-252 197.5,-252 197.5,-252 191.5,-252 185.5,-246 185.5,-240 185.5,-240 185.5,-228 185.5,-228 185.5,-222 191.5,-216 197.5,-216 197.5,-216 255.5,-216 255.5,-216 261.5,-216 267.5,-222 267.5,-228 267.5,-228 267.5,-240 267.5,-240 267.5,-246 261.5,-252 255.5,-252"/>
<text text-anchor="middle" x="226.5" y="-231.5" font-family="sans" font-size="10.00" fill="#000000">combine_bed</text>
</g>
<!-- 3&#45;&gt;2 -->
<g id="edge3" class="edge">
<title>3&#45;&gt;2</title>
<path fill="none" stroke="#c0c0c0" stroke-width="2" d="M217.668,-215.8314C213.8014,-207.8771 209.1794,-198.369 204.9032,-189.5723"/>
<polygon fill="#c0c0c0" stroke="#c0c0c0" stroke-width="2" points="207.9707,-187.8768 200.4509,-180.4133 201.6751,-190.9371 207.9707,-187.8768"/>
</g>
<!-- 4 -->
<g id="node5" class="node">
<title>4</title>
<path fill="none" stroke="#d88556" stroke-width="2" d="M182.5,-324C182.5,-324 132.5,-324 132.5,-324 126.5,-324 120.5,-318 120.5,-312 120.5,-312 120.5,-300 120.5,-300 120.5,-294 126.5,-288 132.5,-288 132.5,-288 182.5,-288 182.5,-288 188.5,-288 194.5,-294 194.5,-300 194.5,-300 194.5,-312 194.5,-312 194.5,-318 188.5,-324 182.5,-324"/>
<text text-anchor="middle" x="157.5" y="-303.5" font-family="sans" font-size="10.00" fill="#000000">tepid_refine</text>
</g>
<!-- 4&#45;&gt;2 -->
<g id="edge4" class="edge">
<title>4&#45;&gt;2</title>
<path fill="none" stroke="#c0c0c0" stroke-width="2" d="M160.9547,-287.9951C164.5322,-269.7725 170.4388,-240.8217 176.5,-216 178.5676,-207.5329 181.0248,-198.3795 183.3458,-190.0569"/>
<polygon fill="#c0c0c0" stroke="#c0c0c0" stroke-width="2" points="186.7179,-190.9943 186.0741,-180.4191 179.9826,-189.0876 186.7179,-190.9943"/>
</g>
<!-- 4&#45;&gt;3 -->
<g id="edge6" class="edge">
<title>4&#45;&gt;3</title>
<path fill="none" stroke="#c0c0c0" stroke-width="2" d="M174.9116,-287.8314C183.021,-279.3694 192.8156,-269.1489 201.682,-259.8971"/>
<polygon fill="#c0c0c0" stroke="#c0c0c0" stroke-width="2" points="204.4618,-262.0549 208.854,-252.4133 199.4079,-257.2115 204.4618,-262.0549"/>
</g>
<!-- 5 -->
<g id="node6" class="node">
<title>5</title>
<path fill="none" stroke="#56d8c9" stroke-width="2" d="M189.5,-468C189.5,-468 125.5,-468 125.5,-468 119.5,-468 113.5,-462 113.5,-456 113.5,-456 113.5,-444 113.5,-444 113.5,-438 119.5,-432 125.5,-432 125.5,-432 189.5,-432 189.5,-432 195.5,-432 201.5,-438 201.5,-444 201.5,-444 201.5,-456 201.5,-456 201.5,-462 195.5,-468 189.5,-468"/>
<text text-anchor="middle" x="157.5" y="-447.5" font-family="sans" font-size="10.00" fill="#000000">tepid_discover</text>
</g>
<!-- 5&#45;&gt;3 -->
<g id="edge5" class="edge">
<title>5&#45;&gt;3</title>
<path fill="none" stroke="#c0c0c0" stroke-width="2" d="M193.4291,-431.9923C207.0172,-423.158 221.0017,-411.1235 228.5,-396 249.6952,-353.2508 241.9218,-296.021 234.2652,-262.2738"/>
<polygon fill="#c0c0c0" stroke="#c0c0c0" stroke-width="2" points="237.5782,-261.0839 231.8203,-252.1902 230.7753,-262.7334 237.5782,-261.0839"/>
</g>
<!-- 6 -->
<g id="node7" class="node">
<title>6</title>
<path fill="none" stroke="#56b1d8" stroke-width="2" d="M208,-396C208,-396 107,-396 107,-396 101,-396 95,-390 95,-384 95,-384 95,-372 95,-372 95,-366 101,-360 107,-360 107,-360 208,-360 208,-360 214,-360 220,-366 220,-372 220,-372 220,-384 220,-384 220,-390 214,-396 208,-396"/>
<text text-anchor="middle" x="157.5" y="-375.5" font-family="sans" font-size="10.00" fill="#000000">individual_bed_merge</text>
</g>
<!-- 5&#45;&gt;6 -->
<g id="edge10" class="edge">
<title>5&#45;&gt;6</title>
<path fill="none" stroke="#c0c0c0" stroke-width="2" d="M157.5,-431.8314C157.5,-424.131 157.5,-414.9743 157.5,-406.4166"/>
<polygon fill="#c0c0c0" stroke="#c0c0c0" stroke-width="2" points="161.0001,-406.4132 157.5,-396.4133 154.0001,-406.4133 161.0001,-406.4132"/>
</g>
<!-- 6&#45;&gt;4 -->
<g id="edge8" class="edge">
<title>6&#45;&gt;4</title>
<path fill="none" stroke="#c0c0c0" stroke-width="2" d="M157.5,-359.8314C157.5,-352.131 157.5,-342.9743 157.5,-334.4166"/>
<polygon fill="#c0c0c0" stroke="#c0c0c0" stroke-width="2" points="161.0001,-334.4132 157.5,-324.4133 154.0001,-334.4133 161.0001,-334.4132"/>
</g>
<!-- 7 -->
<g id="node8" class="node">
<title>7</title>
<path fill="none" stroke="#56d86b" stroke-width="2" d="M133.5,-540C133.5,-540 89.5,-540 89.5,-540 83.5,-540 77.5,-534 77.5,-528 77.5,-528 77.5,-516 77.5,-516 77.5,-510 83.5,-504 89.5,-504 89.5,-504 133.5,-504 133.5,-504 139.5,-504 145.5,-510 145.5,-516 145.5,-516 145.5,-528 145.5,-528 145.5,-534 139.5,-540 133.5,-540"/>
<text text-anchor="middle" x="111.5" y="-519.5" font-family="sans" font-size="10.00" fill="#000000">tepid_map</text>
</g>
<!-- 7&#45;&gt;4 -->
<g id="edge7" class="edge">
<title>7&#45;&gt;4</title>
<path fill="none" stroke="#c0c0c0" stroke-width="2" d="M101.9019,-503.9203C86.7991,-472.8135 61.551,-407.8981 85.5,-360 91.5138,-347.9724 101.6214,-337.9287 112.3907,-329.8944"/>
<polygon fill="#c0c0c0" stroke="#c0c0c0" stroke-width="2" points="114.4688,-332.7127 120.6982,-324.1426 110.4841,-326.9575 114.4688,-332.7127"/>
</g>
<!-- 7&#45;&gt;5 -->
<g id="edge9" class="edge">
<title>7&#45;&gt;5</title>
<path fill="none" stroke="#c0c0c0" stroke-width="2" d="M123.1077,-503.8314C128.2978,-495.7079 134.5232,-485.9637 140.2425,-477.0118"/>
<polygon fill="#c0c0c0" stroke="#c0c0c0" stroke-width="2" points="143.3015,-478.7246 145.736,-468.4133 137.4026,-474.9559 143.3015,-478.7246"/>
</g>
<!-- 8 -->
<g id="node9" class="node">
<title>8</title>
<path fill="none" stroke="#ced856" stroke-width="2" d="M99,-612C99,-612 12,-612 12,-612 6,-612 0,-606 0,-600 0,-600 0,-588 0,-588 0,-582 6,-576 12,-576 12,-576 99,-576 99,-576 105,-576 111,-582 111,-588 111,-588 111,-600 111,-600 111,-606 105,-612 99,-612"/>
<text text-anchor="middle" x="55.5" y="-591.5" font-family="sans" font-size="10.00" fill="#000000">yaha_bowtie_index</text>
</g>
<!-- 8&#45;&gt;7 -->
<g id="edge11" class="edge">
<title>8&#45;&gt;7</title>
<path fill="none" stroke="#c0c0c0" stroke-width="2" d="M69.6312,-575.8314C76.0811,-567.5386 83.8445,-557.557 90.9252,-548.4533"/>
<polygon fill="#c0c0c0" stroke="#c0c0c0" stroke-width="2" points="93.8019,-550.4556 97.1786,-540.4133 88.2764,-546.158 93.8019,-550.4556"/>
</g>
<!-- 9 -->
<g id="node10" class="node">
<title>9</title>
<path fill="none" stroke="#d85656" stroke-width="2" d="M195.5,-612C195.5,-612 141.5,-612 141.5,-612 135.5,-612 129.5,-606 129.5,-600 129.5,-600 129.5,-588 129.5,-588 129.5,-582 135.5,-576 141.5,-576 141.5,-576 195.5,-576 195.5,-576 201.5,-576 207.5,-582 207.5,-588 207.5,-588 207.5,-600 207.5,-600 207.5,-606 201.5,-612 195.5,-612"/>
<text text-anchor="middle" x="168.5" y="-591.5" font-family="sans" font-size="10.00" fill="#000000">mergefastqs</text>
</g>
<!-- 9&#45;&gt;7 -->
<g id="edge12" class="edge">
<title>9&#45;&gt;7</title>
<path fill="none" stroke="#c0c0c0" stroke-width="2" d="M154.1165,-575.8314C147.5514,-567.5386 139.6493,-557.557 132.4422,-548.4533"/>
<polygon fill="#c0c0c0" stroke="#c0c0c0" stroke-width="2" points="135.0284,-546.0813 126.0772,-540.4133 129.5401,-550.4262 135.0284,-546.0813"/>
</g>
</g>
</svg>
